HIERARCHY
ROOT root
{
	OFFSET 0.000000 0.000000 0.000000
	CHANNELS 6 Xposition Yposition Zposition Zrotation Yrotation Xrotation
	JOINT lhip
	{
		OFFSET 0.058581 -0.082280 -0.017664
		CHANNELS 3 Zrotation Yrotation Xrotation
		JOINT lknee
		{
			OFFSET 0.043451 -0.386469 0.008037
			CHANNELS 3 Zrotation Yrotation Xrotation
			JOINT lankle
			{
				OFFSET -0.014790 -0.426874 -0.037428
				CHANNELS 3 Zrotation Yrotation Xrotation
				JOINT ltoe
				{
					OFFSET 0.041054 -0.060286 0.122042
					CHANNELS 3 Zrotation Yrotation Xrotation
					End Site
					{
						OFFSET 0.000000 0.000000 0.000000
					}
				}
			}
		}
	}
	JOINT rhip
	{
		OFFSET -0.060310 -0.090513 -0.013543
		CHANNELS 3 Zrotation Yrotation Xrotation
		JOINT rknee
		{
			OFFSET -0.043257 -0.383688 -0.004843
			CHANNELS 3 Zrotation Yrotation Xrotation
			JOINT rankle
			{
				OFFSET 0.019056 -0.420046 -0.034562
				CHANNELS 3 Zrotation Yrotation Xrotation
				JOINT rtoe
				{
					OFFSET -0.034840 -0.062106 0.130323
					CHANNELS 3 Zrotation Yrotation Xrotation
					End Site
					{
						OFFSET 0.000000 0.000000 0.000000
					}
				}
			}
		}
	}
	JOINT lowerback
	{
		OFFSET 0.004439 0.124404 -0.038385
		CHANNELS 3 Zrotation Yrotation Xrotation
		JOINT upperback
		{
			OFFSET 0.004488 0.137956 0.026820
			CHANNELS 3 Zrotation Yrotation Xrotation
			JOINT chest
			{
				OFFSET -0.002265 0.056032 0.002855
				CHANNELS 3 Zrotation Yrotation Xrotation
				JOINT lowerneck
				{
					OFFSET -0.013390 0.211636 -0.033468
					CHANNELS 3 Zrotation Yrotation Xrotation
					JOINT upperneck
					{
						OFFSET 0.010113 0.088937 0.050410
						CHANNELS 3 Zrotation Yrotation Xrotation
						End Site
						{
							OFFSET 0.000000 0.000000 0.000000
						}
					}
				}
				JOINT lclavicle
				{
					OFFSET 0.071702 0.114000 -0.018898
					CHANNELS 3 Zrotation Yrotation Xrotation
					JOINT lshoulder
					{
						OFFSET 0.122921 0.045205 -0.019046
						CHANNELS 3 Zrotation Yrotation Xrotation
						JOINT lelbow
						{
							OFFSET 0.255332 -0.015649 -0.022946
							CHANNELS 3 Zrotation Yrotation Xrotation
							JOINT lwrist
							{
								OFFSET 0.265709 0.012698 -0.007375
								CHANNELS 3 Zrotation Yrotation Xrotation
								End Site
								{
									OFFSET 0.000000 0.000000 0.000000
								}
							}
						}
					}
				}
				JOINT rclavicle
				{
					OFFSET -0.082954 0.112472 -0.023707
					CHANNELS 3 Zrotation Yrotation Xrotation
					JOINT rshoulder
					{
						OFFSET -0.113228 0.046853 -0.008472
						CHANNELS 3 Zrotation Yrotation Xrotation
						JOINT relbow
						{
							OFFSET -0.260127 -0.014369 -0.031269
							CHANNELS 3 Zrotation Yrotation Xrotation
							JOINT rwrist
							{
								OFFSET -0.269108 0.006794 -0.006027
								CHANNELS 3 Zrotation Yrotation Xrotation
								End Site
								{
									OFFSET 0.000000 0.000000 0.000000
								}
							}
						}
					}
				}
			}
		}
	}
}
MOTION
Frames: 6
Frame Time: 0.033333
1.116452 0.762295 0.986655 -86.813774 3.342338 88.028392 3.492911 -0.385261 5.242166 -2.720645 -14.683112 2.948001 7.486109 9.968354 -19.026002 0.000000 -0.000000 0.000000 1.435236 -3.373548 2.681467 3.865112 1.719747 6.586525 2.083748 -4.635011 -13.592513 0.000000 -0.000000 0.000000 -1.908559 2.459813 3.385372 1.455653 -1.511830 -0.562888 1.853547 -1.156671 2.749052 3.770335 4.661191 11.242497 4.490277 3.885240 4.180645 -24.980418 4.196471 6.143267 -61.621155 -4.580011 6.962378 10.826458 -20.567497 6.136847 -3.959339 -0.326814 -8.354670 22.396022 -2.522776 5.065170 63.172501 1.289447 9.484803 -13.742424 19.362564 -1.180100 8.641807 -0.823858 -10.136454 
1.116107 0.762381 0.986282 -86.919467 3.307817 87.758734 3.499515 -0.122540 5.544576 -2.707618 -14.554402 3.007266 7.307028 9.619821 -19.030652 0.000000 -0.000000 0.000000 1.334537 -3.448911 2.983641 3.862835 1.565493 6.604595 2.002178 -4.241397 -13.643062 0.000000 -0.000000 0.000000 -1.890710 2.257501 3.673223 1.398146 -1.681463 -0.139508 1.739587 -0.935376 2.463642 3.671896 4.720971 10.620298 4.076892 3.499591 4.158906 -24.845382 4.496377 5.658901 -61.611200 -4.437317 6.796059 10.703603 -20.440167 6.153127 -4.096995 -0.445770 -8.100317 22.638513 -2.577846 4.837311 62.983360 1.551519 9.515463 -13.604816 19.662295 -1.056974 8.642127 -0.307985 -9.739459 
1.115804 0.762092 0.985742 -86.886220 3.308582 87.649685 3.525346 -0.057799 5.692349 -2.682923 -14.524147 2.887703 7.168415 9.464296 -18.960026 0.000000 -0.000000 0.000000 1.264316 -3.487105 3.064224 3.942197 1.598007 6.697634 1.995739 -4.093265 -13.555908 0.000000 -0.000000 0.000000 -1.826091 2.039661 3.701863 1.322086 -1.867425 0.178461 1.700862 -0.711972 2.346149 3.617320 4.633824 10.376867 3.760559 3.342473 3.414234 -24.685474 4.653812 5.290672 -61.972816 -4.397826 6.826916 10.755235 -20.438082 6.449343 -3.838196 -0.374651 -8.247998 22.466972 -2.578666 4.708148 63.465684 1.659291 9.494319 -13.862616 19.691606 -1.046100 7.898025 -0.462785 -9.751163 
1.115642 0.761888 0.985594 -86.865638 3.322866 87.649713 3.549308 -0.075393 5.659879 -2.674166 -14.396991 2.926310 7.043438 9.258258 -19.013649 0.000000 -0.000000 0.000000 1.300081 -3.517594 3.112529 3.883949 1.535017 6.610639 2.064393 -4.034926 -13.579390 0.000000 -0.000000 0.000000 -1.866368 2.017431 3.631947 1.351566 -1.945408 0.173570 1.764007 -0.705939 2.360221 3.447184 4.469267 9.883027 3.405235 3.114738 3.331703 -24.827335 4.533876 5.264325 -62.129585 -4.421361 6.947203 10.814846 -20.602600 6.418489 -3.675055 -0.540533 -8.133354 22.508213 -2.411242 4.649308 63.587100 1.722762 9.525429 -13.980630 20.151108 -1.377308 7.934979 -0.190609 -10.049457 
1.115549 0.761770 0.985592 -86.853678 3.322777 87.673509 3.549875 -0.078088 5.659516 -2.674783 -14.383785 2.916763 7.050075 9.137358 -18.975622 0.000000 -0.000000 0.000000 1.272166 -3.505916 3.096237 3.927790 1.562316 6.618724 2.077332 -4.001522 -13.593870 0.000000 -0.000000 0.000000 -1.866552 1.990095 3.593739 1.360860 -1.957630 0.223669 1.755307 -0.718271 2.307748 3.374003 4.354874 9.716969 3.157583 2.959316 3.284521 -24.935735 4.566741 5.158987 -62.242384 -4.457015 7.019999 10.843162 -20.860779 6.487113 -3.676483 -0.466283 -8.055448 22.653175 -2.399414 4.534827 63.596841 1.850841 9.605740 -14.023995 20.340321 -1.397306 7.835077 -0.337923 -9.884556 
1.115298 0.761477 0.985595 -86.827466 3.312038 87.625128 3.509927 -0.067947 5.758884 -2.593321 -14.269112 2.834806 6.996748 9.021717 -18.964759 0.000000 -0.000000 0.000000 1.304804 -3.461859 3.173047 3.814442 1.470070 6.595319 2.020474 -4.133253 -13.681943 0.000000 -0.000000 0.000000 -1.850682 1.929827 3.616245 1.336238 -1.978964 0.198437 1.748443 -0.750876 2.315661 3.247134 4.195238 9.324154 2.822510 2.816522 3.254792 -25.048960 4.506862 5.039895 -62.436490 -4.598270 7.123688 10.792186 -21.057941 6.657479 -3.797594 -0.464222 -7.974403 22.719522 -2.325468 4.411546 63.705448 1.939445 9.745657 -14.000913 20.798206 -1.420855 7.913849 -0.317126 -9.944541 
